HIERARCHY
ROOT joint_0
{
	OFFSET 0.000000 0.000000 0.000000
	CHANNELS 6 Xposition Yposition Zposition Zrotation Yrotation Xrotation 
	JOINT joint_1
	{
		OFFSET 7.683380 1.521202 101.454956
		CHANNELS 3 Zrotation Yrotation Xrotation
		JOINT joint_2
		{
			OFFSET -4.816528 0.859650 92.807007
			CHANNELS 3 Zrotation Yrotation Xrotation
			JOINT joint_3
			{
				OFFSET -7.237778 1.114670 92.543091
				CHANNELS 3 Zrotation Yrotation Xrotation
				JOINT joint_4
				{
					OFFSET 0.479660 2.971886 127.844971
					CHANNELS 3 Zrotation Yrotation Xrotation
					JOINT joint_5
					{
						OFFSET 15.211349 9.937172 76.390015
						CHANNELS 3 Zrotation Yrotation Xrotation
						End Site
						{
							OFFSET 0.000000 0.000000 0.000000
						}
					}
				}
				JOINT joint_6
				{
					OFFSET 2.887054 -26.053230 72.331909
					CHANNELS 3 Zrotation Yrotation Xrotation
					JOINT joint_7
					{
						OFFSET 10.229767 -132.540291 -13.979004
						CHANNELS 3 Zrotation Yrotation Xrotation
						JOINT joint_8
						{
							OFFSET 17.695633 -10.988861 -262.204956
							CHANNELS 3 Zrotation Yrotation Xrotation
							JOINT joint_9
							{
								OFFSET 11.003433 -0.031860 -255.909973
								CHANNELS 3 Zrotation Yrotation Xrotation
								End Site
								{
									OFFSET 0.000000 0.000000 0.000000
								}
							}
						}
					}
				}
				JOINT joint_10
				{
					OFFSET -2.092239 29.348854 71.062988
					CHANNELS 3 Zrotation Yrotation Xrotation
					JOINT joint_11
					{
						OFFSET -11.853149 131.935837 -17.877075
						CHANNELS 3 Zrotation Yrotation Xrotation
						JOINT joint_12
						{
							OFFSET 14.084503 10.700203 -262.437012
							CHANNELS 3 Zrotation Yrotation Xrotation
							JOINT joint_13
							{
								OFFSET 48.202347 13.087273 -251.229919
								CHANNELS 3 Zrotation Yrotation Xrotation
								End Site
								{
									OFFSET 0.000000 0.000000 0.000000
								}
							}
						}
					}
				}
			}
		}
	}
	JOINT joint_14
	{
		OFFSET 4.150818 -83.296913 -102.580017
		CHANNELS 3 Zrotation Yrotation Xrotation
		JOINT joint_15
		{
			OFFSET -36.423187 -7.342392 -449.858948
			CHANNELS 3 Zrotation Yrotation Xrotation
			JOINT joint_16
			{
				OFFSET -41.100235 -7.280350 -426.202026
				CHANNELS 3 Zrotation Yrotation Xrotation
				JOINT joint_17
				{
					OFFSET 175.972961 13.159744 -75.358000
					CHANNELS 3 Zrotation Yrotation Xrotation
					End Site
					{
						OFFSET 0.000000 0.000000 0.000000
					}
				}
			}
		}
	}
	JOINT joint_18
	{
		OFFSET -9.062592 83.477568 -102.093018
		CHANNELS 3 Zrotation Yrotation Xrotation
		JOINT joint_19
		{
			OFFSET -39.145699 -6.092751 -449.645996
			CHANNELS 3 Zrotation Yrotation Xrotation
			JOINT joint_20
			{
				OFFSET -32.926178 -7.016375 -426.911980
				CHANNELS 3 Zrotation Yrotation Xrotation
				JOINT joint_21
				{
					OFFSET 176.289299 16.780729 -73.883997
					CHANNELS 3 Zrotation Yrotation Xrotation
					End Site
					{
						OFFSET 0.000000 0.000000 0.000000
					}
				}
			}
		}
	}
}
MOTION
Frames: 16
Frame Time: 0.016667
558.539917 -102.733788 1076.672974 0.867698 -1.888770 0.560829 -0.323489 4.429170 1.964976 -0.395188 -0.832367 -0.485701 -0.352829 0.919930 0.312434 -0.884492 3.730977 1.940572 0.000000 0.000000 0.000000 2.468981 -0.529002 1.723606 -0.270084 -0.710874 -4.396122 0.016782 0.251497 0.403125 0.000000 0.000000 0.000000 -2.161848 -1.442411 -2.463663 -0.274159 -0.798723 1.825145 -0.211532 8.216511 -3.772322 0.000000 0.000000 0.000000 1.274807 -1.782959 -1.031959 1.118031 3.224462 -0.075244 1.129231 0.055922 0.478231 0.000000 0.000000 0.000000 -0.523938 -1.381956 1.977070 -0.383685 2.917988 -0.318687 -0.344384 -0.550975 -0.091338 0.000000 0.000000 0.000000 
558.487244 -102.855545 1076.673950 0.874289 -1.893214 0.560609 -0.321333 4.406594 1.978343 -0.393925 -0.828508 -0.488211 -0.351102 0.916435 0.314521 -0.886389 3.743306 1.942047 0.000000 0.000000 0.000000 2.480521 -0.517861 1.718043 -0.270010 -0.697779 -4.391726 0.016461 0.256803 0.395934 0.000000 0.000000 0.000000 -2.159431 -1.431241 -2.474207 -0.274242 -0.787240 1.822024 -0.211821 8.217623 -3.772437 0.000000 0.000000 0.000000 1.273590 -1.774160 -1.023562 1.117837 3.212553 -0.076134 1.128703 0.055922 0.478006 0.000000 0.000000 0.000000 -0.527590 -1.379240 1.987463 -0.385959 2.913936 -0.323170 -0.347030 -0.547527 -0.092770 0.000000 0.000000 0.000000 
558.440735 -102.973335 1076.673950 0.880246 -1.895805 0.560961 -0.319627 4.382482 1.992329 -0.393245 -0.823212 -0.492077 -0.349759 0.911220 0.317297 -0.888047 3.754650 1.943039 0.000000 0.000000 0.000000 2.493400 -0.506423 1.712806 -0.270068 -0.684379 -4.388967 0.016187 0.262747 0.389900 0.000000 0.000000 0.000000 -2.155755 -1.419446 -2.485037 -0.274256 -0.775391 1.817545 -0.211907 8.219659 -3.771873 0.000000 0.000000 0.000000 1.272776 -1.766275 -1.016819 1.117808 3.198894 -0.075512 1.128428 0.056389 0.477854 0.000000 0.000000 0.000000 -0.531259 -1.378292 1.997035 -0.388336 2.910148 -0.327827 -0.349791 -0.543768 -0.094279 0.000000 0.000000 0.000000 
558.393494 -103.081947 1076.672974 0.887512 -1.896485 0.562453 -0.318441 4.360040 2.005541 -0.392953 -0.819347 -0.494564 -0.349091 0.907181 0.318203 -0.889113 3.760940 1.944333 0.000000 0.000000 0.000000 2.505279 -0.496386 1.710022 -0.270423 -0.673076 -4.391846 0.016081 0.271204 0.387911 0.000000 0.000000 0.000000 -2.155360 -1.408189 -2.493833 -0.274308 -0.764172 1.809087 -0.211712 8.222978 -3.770740 0.000000 0.000000 0.000000 1.271485 -1.761315 -1.013825 1.116678 3.186900 -0.071654 1.127432 0.057410 0.477352 0.000000 0.000000 0.000000 -0.535397 -1.380776 2.004834 -0.391404 2.908221 -0.332565 -0.353207 -0.538735 -0.096184 0.000000 0.000000 0.000000 
558.350159 -103.183052 1076.671997 0.895388 -1.895013 0.565049 -0.317749 4.336881 2.018032 -0.393145 -0.815154 -0.497231 -0.348794 0.902912 0.320298 -0.889276 3.764317 1.943037 0.000000 0.000000 0.000000 2.517154 -0.486808 1.707942 -0.271009 -0.662581 -4.398883 0.016079 0.281845 0.388515 0.000000 0.000000 0.000000 -2.156448 -1.397056 -2.503419 -0.274312 -0.753002 1.798316 -0.211241 8.228094 -3.769066 0.000000 0.000000 0.000000 1.270424 -1.758126 -1.014017 1.115309 3.174044 -0.065206 1.126419 0.059623 0.476754 0.000000 0.000000 0.000000 -0.539846 -1.385841 2.011102 -0.394933 2.906669 -0.337616 -0.357100 -0.532426 -0.098409 0.000000 0.000000 0.000000 
558.309692 -103.286446 1076.668945 0.901286 -1.892614 0.567343 -0.317087 4.314932 2.031307 -0.393406 -0.811589 -0.500155 -0.348573 0.898774 0.322135 -0.889299 3.766308 1.941962 0.000000 0.000000 0.000000 2.528812 -0.477732 1.705447 -0.271497 -0.652496 -4.404698 0.016062 0.292075 0.388749 0.000000 0.000000 0.000000 -2.156782 -1.385930 -2.511968 -0.274355 -0.742158 1.786221 -0.210732 8.232812 -3.767241 0.000000 0.000000 0.000000 1.269813 -1.757374 -1.013215 1.114441 3.163977 -0.059508 1.125885 0.060962 0.476425 0.000000 0.000000 0.000000 -0.543963 -1.392695 2.018028 -0.398069 2.907353 -0.343312 -0.360620 -0.526983 -0.100396 0.000000 0.000000 0.000000 
558.271851 -103.398445 1076.666992 0.903253 -1.888706 0.568639 -0.315440 4.293568 2.045570 -0.392747 -0.808770 -0.503435 -0.347393 0.895740 0.324346 -0.889579 3.769941 1.941043 0.000000 0.000000 0.000000 2.538674 -0.469096 1.703029 -0.271709 -0.642859 -4.407710 0.015881 0.301208 0.385077 0.000000 0.000000 0.000000 -2.158741 -1.375039 -2.520213 -0.274485 -0.731357 1.774192 -0.210438 8.235380 -3.766208 0.000000 0.000000 0.000000 1.270208 -1.760525 -1.008478 1.115076 3.157681 -0.057642 1.126514 0.062540 0.476574 0.000000 0.000000 0.000000 -0.547607 -1.402531 2.026900 -0.400577 2.911857 -0.350079 -0.363550 -0.522350 -0.102059 0.000000 0.000000 0.000000 
558.236023 -103.517136 1076.663940 0.902503 -1.883627 0.569060 -0.313137 4.274115 2.060918 -0.391470 -0.807103 -0.507042 -0.345599 0.893541 0.326449 -0.889767 3.771828 1.940747 0.000000 0.000000 0.000000 2.546290 -0.461419 1.700292 -0.271591 -0.634205 -4.407883 0.015581 0.310760 0.378616 0.000000 0.000000 0.000000 -2.161338 -1.364532 -2.527030 -0.274781 -0.721115 1.760972 -0.210309 8.236827 -3.765889 0.000000 0.000000 0.000000 1.271426 -1.766870 -1.000642 1.116903 3.154867 -0.058691 1.128097 0.063184 0.477200 0.000000 0.000000 0.000000 -0.551183 -1.414983 2.037422 -0.402879 2.919876 -0.357806 -0.366293 -0.518867 -0.103534 0.000000 0.000000 0.000000 
558.204712 -103.633415 1076.660034 0.900959 -1.880311 0.569636 -0.312018 4.256819 2.077009 -0.391449 -0.806439 -0.511333 -0.344919 0.891364 0.329819 -0.889517 3.775023 1.937516 0.000000 0.000000 0.000000 2.556529 -0.453590 1.696185 -0.271660 -0.625035 -4.408510 0.015396 0.318584 0.374777 0.000000 0.000000 0.000000 -2.161902 -1.354106 -2.535424 -0.274955 -0.710998 1.748532 -0.210062 8.239020 -3.765559 0.000000 0.000000 0.000000 1.272603 -1.772899 -0.993424 1.118554 3.155364 -0.059242 1.129633 0.063643 0.477819 0.000000 0.000000 0.000000 -0.553880 -1.425619 2.047375 -0.404394 2.928889 -0.364888 -0.368196 -0.516369 -0.104565 0.000000 0.000000 0.000000 
558.182129 -103.740723 1076.654053 0.900471 -1.880098 0.570480 -0.311433 4.237536 2.094385 -0.392089 -0.801524 -0.514870 -0.344972 0.886810 0.332105 -0.889302 3.779999 1.933292 0.000000 0.000000 0.000000 2.564118 -0.444589 1.690547 -0.272056 -0.614872 -4.409698 0.015432 0.323229 0.375939 0.000000 0.000000 0.000000 -2.165481 -1.343583 -2.545101 -0.274808 -0.700082 1.737591 -0.209521 8.242355 -3.764577 0.000000 0.000000 0.000000 1.273125 -1.777689 -0.987986 1.119255 3.161385 -0.058663 1.130502 0.062537 0.478269 0.000000 0.000000 0.000000 -0.555347 -1.432364 2.055648 -0.404980 2.938075 -0.369432 -0.368988 -0.514710 -0.105051 0.000000 0.000000 0.000000 
558.165100 -103.842163 1076.646973 0.900325 -1.882840 0.571396 -0.312358 4.220778 2.112024 -0.394135 -0.798005 -0.516049 -0.346752 0.882791 0.333025 -0.888548 3.784922 1.926502 0.000000 0.000000 0.000000 2.574129 -0.435331 1.683199 -0.272642 -0.604053 -4.410905 0.015631 0.326129 0.380849 0.000000 0.000000 0.000000 -2.167795 -1.332970 -2.555766 -0.274592 -0.689059 1.727613 -0.208981 8.246179 -3.764239 0.000000 0.000000 0.000000 1.273256 -1.781433 -0.983586 1.119356 3.172178 -0.057155 1.130993 0.060797 0.478604 0.000000 0.000000 0.000000 -0.555843 -1.435828 2.063020 -0.404753 2.948031 -0.372608 -0.368856 -0.514298 -0.105032 0.000000 0.000000 0.000000 
558.152161 -103.943382 1076.637939 0.900457 -1.886115 0.572908 -0.314113 4.203689 2.130103 -0.397182 -0.794606 -0.520112 -0.349135 0.879767 0.336243 -0.888072 3.790072 1.920973 0.000000 0.000000 0.000000 2.582942 -0.426685 1.675527 -0.273288 -0.593974 -4.412520 0.015879 0.327894 0.386805 0.000000 0.000000 0.000000 -2.169890 -1.323412 -2.567157 -0.274151 -0.678959 1.718395 -0.208125 8.250822 -3.762748 0.000000 0.000000 0.000000 1.273130 -1.784357 -0.980078 1.119125 3.182936 -0.055466 1.131173 0.059961 0.478738 0.000000 0.000000 0.000000 -0.556261 -1.438890 2.069987 -0.404455 2.958722 -0.376108 -0.368670 -0.513706 -0.105008 0.000000 0.000000 0.000000 
558.143860 -104.049461 1076.626953 0.899856 -1.888275 0.575475 -0.317198 4.184752 2.145163 -0.401323 -0.791171 -0.522585 -0.352851 0.875897 0.337882 -0.888790 3.799626 1.918623 0.000000 0.000000 0.000000 2.593127 -0.418306 1.670566 -0.273807 -0.584217 -4.413915 0.016021 0.330349 0.390337 0.000000 0.000000 0.000000 -2.170428 -1.314114 -2.577171 -0.273236 -0.669405 1.709145 -0.206544 8.257289 -3.758321 0.000000 0.000000 0.000000 1.272816 -1.786119 -0.977296 1.118736 3.189057 -0.053839 1.131054 0.062497 0.478494 0.000000 0.000000 0.000000 -0.556971 -1.443222 2.077237 -0.404264 2.970007 -0.381858 -0.368756 -0.512703 -0.105137 0.000000 0.000000 0.000000 
558.139648 -104.158493 1076.614014 0.899323 -1.890430 0.578976 -0.321520 4.165931 2.158831 -0.406659 -0.789849 -0.526271 -0.357593 0.873428 0.340947 -0.890037 3.811830 1.917242 0.000000 0.000000 0.000000 2.603193 -0.410529 1.666170 -0.274329 -0.575128 -4.415438 0.016171 0.332056 0.394000 0.000000 0.000000 0.000000 -2.170121 -1.305735 -2.587671 -0.272038 -0.660702 1.701098 -0.204604 8.264789 -3.752668 0.000000 0.000000 0.000000 1.272201 -1.786568 -0.975360 1.118038 3.192731 -0.052265 1.130555 0.067136 0.477931 0.000000 0.000000 0.000000 -0.557609 -1.447902 2.084509 -0.403874 2.982244 -0.389271 -0.368760 -0.511466 -0.105254 0.000000 0.000000 0.000000 
558.136719 -104.265022 1076.600952 0.897410 -1.892687 0.582316 -0.325223 4.147751 2.173479 -0.411462 -0.788397 -0.530420 -0.361794 0.871476 0.343715 -0.891535 3.823818 1.917213 0.000000 0.000000 0.000000 2.612366 -0.403370 1.663026 -0.274897 -0.566975 -4.418683 0.016298 0.334136 0.397129 0.000000 0.000000 0.000000 -2.170079 -1.298235 -2.598619 -0.270921 -0.652783 1.693340 -0.202777 8.271660 -3.747414 0.000000 0.000000 0.000000 1.271836 -1.787239 -0.973457 1.117583 3.196807 -0.050715 1.130284 0.072743 0.477392 0.000000 0.000000 0.000000 -0.557592 -1.451993 2.091637 -0.402878 2.994033 -0.396200 -0.368155 -0.509635 -0.105173 0.000000 0.000000 0.000000 
558.130127 -104.366402 1076.586060 0.892956 -1.896311 0.584844 -0.328013 4.133614 2.189342 -0.415324 -0.786131 -0.532795 -0.365241 0.868843 0.345703 -0.892281 3.834017 1.914553 0.000000 0.000000 0.000000 2.622548 -0.397784 1.659110 -0.275441 -0.560382 -4.423877 0.016392 0.338303 0.399620 0.000000 0.000000 0.000000 -2.168568 -1.291747 -2.610589 -0.270456 -0.646006 1.686265 -0.201903 8.276925 -3.746661 0.000000 0.000000 0.000000 1.272424 -1.788533 -0.970672 1.118147 3.204216 -0.049865 1.131015 0.077034 0.477379 0.000000 0.000000 0.000000 -0.555841 -1.453958 2.098172 -0.400364 3.004812 -0.400714 -0.365908 -0.507594 -0.104426 0.000000 0.000000 0.000000 
